# xmcd
#
# Track frame offsets:
#	150
#	16812
#	43727
#
# Disc length: 946 seconds
#
# Revision: 1
# Processed by: cddbd v1.5.2PL0 Copyright (c) Steve Scherf et al.
# Submitted via: EasyCDDAExtractor 7.0.5.4
#
DISCID=1a03b003
DTITLE=Tuff e Nuff - Yo Yo [CDm '94)
DYEAR=1994
DGENRE=Eurodance
TTITLE0=Yo Yo (Radio Edit)
TTITLE1=Yo Yo (Extended Mix)
TTITLE2=Yo Yo (Up And Down Mix)
EXTD=YEAR: 1997 ID3G: 35
EXTT0=
EXTT1=
EXTT2=
PLAYORDER=
